<svg width="253" height="240" viewBox="0 0 253 240" fill="none" xmlns="http://www.w3.org/2000/svg">
<g clip-path="url(#clip0)">
<path d="M123.985 112.221C125.93 109.33 127.533 106.755 129.32 104.324C137.047 93.7586 146.705 90.5654 158.913 94.4682C168.979 97.7008 174.222 105.48 173.88 118.424C173.21 143.062 161.41 162.458 143.643 178.437C140.779 181.013 134.984 182.419 131.212 181.525C111.777 176.926 95.785 166.886 85.6799 149.055C80.2396 139.436 77.7429 129.33 82.5524 118.621C88.8862 104.521 103.118 100.342 117.52 108.318C119.635 109.475 121.646 110.802 123.985 112.221Z" fill="#F3BBA5"/>
<path d="M121.659 85.1385C125.128 79.9742 127.993 75.3881 131.173 71.0386C144.957 52.1685 162.211 46.4655 183.985 53.4563C201.962 59.2251 211.318 73.1148 210.687 96.2161C209.491 140.185 188.44 174.824 156.718 203.339C151.607 207.925 141.252 210.448 134.524 208.845C99.8849 200.619 71.3171 182.708 53.3012 150.868C43.5903 133.706 39.1487 115.664 47.7296 96.5446C59.0305 71.3671 84.4446 63.9294 110.148 78.1608C113.893 80.237 117.48 82.6024 121.659 85.1385Z" stroke="#9ABAA9" stroke-width="13.4023" stroke-miterlimit="10" stroke-linecap="round" stroke-linejoin="round"/>
<path d="M119.359 55.4672C124.34 48.0558 128.453 41.4855 132.999 35.2437C152.776 8.18702 177.52 0.0135208 208.755 10.0399C234.524 18.3053 247.954 38.2266 247.047 71.3674C245.339 134.429 215.129 184.101 169.649 224.995C162.329 231.578 147.467 235.192 137.822 232.893C88.1371 221.092 47.1776 195.415 21.3299 149.752C7.40075 125.139 1.02752 99.2519 13.3403 71.8404C29.5559 35.7299 65.995 25.0596 102.868 45.4671C108.229 48.45 113.38 51.8272 119.359 55.4672Z" stroke="#BDCDCC" stroke-width="11.8266" stroke-miterlimit="10" stroke-linecap="round" stroke-linejoin="round"/>
</g>
<defs>
<clipPath id="clip0">
<rect width="252.13" height="239.502" fill="white" transform="translate(0.869873)"/>
</clipPath>
</defs>
</svg>
