<svg width="398" height="327" viewBox="0 0 398 327" fill="none" xmlns="http://www.w3.org/2000/svg">
<g clip-path="url(#clip0)">
<path d="M21.8237 191.388C22.1538 189.854 23.6876 188.728 25.2215 189.058L62.7527 197.077C92.4399 203.426 111.584 232.763 105.274 262.276C98.9054 292.118 69.4513 311.068 39.7641 304.719L2.23288 296.7C0.699008 296.37 -0.232963 294.72 0.0971102 293.186L21.8237 191.388ZM43.0648 281.634C57.258 284.662 70.2085 277.886 76.5381 265.771C86.4986 246.626 74.6548 223.249 53.5495 218.745L42.6571 216.415C42.0746 216.298 41.5116 216.667 41.3951 217.23L28.5416 277.44C28.4251 278.022 28.794 278.585 29.3571 278.702L43.0648 281.634Z" fill="#E3966D"/>
<path d="M106.73 314.175L164.376 212.668C164.92 211.775 166.085 211.076 167.172 211.153L168.745 211.289C169.852 211.386 170.881 212.26 171.269 213.231L211.752 322.718C212.528 324.834 211.111 326.776 208.761 326.582L191.365 325.164C188.549 324.931 187.365 323.883 186.2 320.796L181.793 308.603C181.657 308.214 181.288 307.942 180.88 307.904L139.601 304.545C139.174 304.506 138.786 304.719 138.572 305.088L132.243 316.563C131.311 318.388 129.427 320.116 126.302 319.864L109.06 318.466C106.711 318.291 105.623 316.136 106.73 314.175ZM172.22 285.73C172.997 285.789 173.58 285.031 173.308 284.294L164.066 259.033L163.91 259.014L150.863 282.469C150.494 283.148 150.94 283.983 151.717 284.041L172.22 285.73Z" fill="#E3966D"/>
<path d="M223.246 320.718C223.246 320.543 223.265 320.368 223.343 320.213L260.932 237.598L260.913 237.287L227.731 238.957C225.498 239.073 223.595 237.345 223.479 235.113L222.722 220.123C222.605 217.89 224.333 215.988 226.566 215.871L291.202 212.609C293.435 212.493 295.338 214.221 295.454 216.454L295.493 217.172C295.493 217.327 295.474 217.502 295.415 217.658L259.263 300.991L259.282 301.302L293.532 299.574C295.26 299.496 296.58 300.836 296.677 302.409L297.551 319.534C297.629 321.106 296.444 322.582 294.716 322.679L227.614 326.077C225.382 326.193 223.479 324.465 223.362 322.232L223.246 320.718Z" fill="#E3966D"/>
<path d="M307.259 213.677C306.949 212.143 307.9 210.493 309.589 210.144L373.39 197.115C375.079 196.766 376.594 197.911 376.924 199.445L380.361 216.24C380.671 217.774 379.72 219.424 378.031 219.774L336.383 228.278C335.801 228.395 335.432 228.958 335.548 229.54L339.024 246.549C339.14 247.131 339.703 247.5 340.286 247.384L373.332 240.627C375.526 240.18 377.662 241.598 378.108 243.792L381.331 259.538C381.681 261.227 380.535 262.742 379.001 263.072L344.907 270.042C344.324 270.159 343.956 270.722 344.072 271.304L347.897 290.021C348.013 290.604 348.577 290.973 349.159 290.856L390.787 282.352C392.476 282.002 393.991 283.148 394.321 284.682L397.757 301.477C398.068 303.011 397.117 304.661 395.427 305.01L331.626 318.058C329.937 318.408 328.423 317.262 328.093 315.728L307.259 213.677Z" fill="#E3966D"/>
<path d="M350.46 164.881C343.742 71.16 277.223 13.2031 191.675 13.2031C105.992 13.2031 38.5215 64.2091 31.9589 158.125" stroke="#F1BEA8" stroke-width="27.1825" stroke-miterlimit="10" stroke-linecap="round" stroke-linejoin="round"/>
<path d="M309.24 174.317C306.813 101.274 257.573 52.8311 191.656 52.8311C124.962 52.8311 71.6065 98.7112 70.3832 172.958" stroke="#9ABAA9" stroke-width="19.4161" stroke-miterlimit="10" stroke-linecap="round" stroke-linejoin="round"/>
<path d="M278.504 188.083C278.504 187.773 278.504 188.413 278.504 188.083C278.504 135.078 239.07 87.4111 191.675 87.4111C144.281 87.4111 101.138 131.039 101.138 184.045" stroke="#BDCDCC" stroke-width="15.5328" stroke-miterlimit="10" stroke-linecap="round" stroke-linejoin="round"/>
</g>
<defs>
<clipPath id="clip0">
<rect width="398" height="327" fill="white"/>
</clipPath>
</defs>
</svg>
