<svg width="61" height="61" viewBox="0 0 61 61" fill="none" xmlns="http://www.w3.org/2000/svg">
<path d="M42.6365 9.90252L52.1889 20.6511C52.5913 21.1039 52.5913 21.8427 52.1889 22.2956L29.0597 48.321L19.2319 49.5483C17.9188 49.7152 16.8068 48.464 16.955 46.9863L18.0458 35.9279L41.175 9.90252C41.5774 9.4497 42.234 9.4497 42.6365 9.90252ZM59.7927 7.17367L54.6247 1.35847C53.0149 -0.452823 50.3991 -0.452823 48.7788 1.35847L45.0299 5.57687C44.6274 6.02969 44.6274 6.76851 45.0299 7.22133L54.5823 17.9699C54.9847 18.4227 55.6413 18.4227 56.0438 17.9699L59.7927 13.7515C61.4024 11.9283 61.4024 8.98496 59.7927 7.17367V7.17367ZM40.6667 41.2426V53.3735H6.77778V15.2411H31.1142C31.4531 15.2411 31.7708 15.0862 32.0144 14.824L36.2505 10.0574C37.0554 9.15179 36.4835 7.61457 35.3503 7.61457H5.08333C2.27691 7.61457 0 10.1766 0 13.3344V55.2801C0 58.438 2.27691 61 5.08333 61H42.3611C45.1675 61 47.4444 58.438 47.4444 55.2801V36.4761C47.4444 35.201 46.0783 34.5694 45.2734 35.4632L41.0373 40.2297C40.8043 40.5038 40.6667 40.8613 40.6667 41.2426Z" fill="#F1BEA8"/>
</svg>
