<svg width="194" height="294" viewBox="0 0 194 294" fill="none" xmlns="http://www.w3.org/2000/svg">
<path d="M75.7665 281.206C74.5847 281.79 73.4991 282.314 72.52 282.778C32.6152 234.277 15.9231 193.452 12.6113 159.791C9.19809 125.101 19.8926 96.9787 35.8777 74.6335C51.9709 52.1373 73.4173 35.545 91.0922 24.5149C99.8905 19.0242 107.655 14.9734 113.192 12.3069C114.326 11.7607 115.366 11.2732 116.3 10.8438C159.44 57.3394 177.586 97.1219 181.438 130.263C185.397 164.316 174.414 192.642 157.598 215.623C140.678 238.746 117.976 256.246 99.2284 268.038C89.8982 273.907 81.6538 278.296 75.7665 281.206Z" stroke="#F3BBA5" stroke-width="18.123" stroke-miterlimit="10"/>
<path d="M80.3417 251.212C79.6279 251.529 78.963 251.818 78.3512 252.08C50.2371 217.859 38.7651 189.525 36.7246 166.528C34.6202 142.811 42.467 123.876 54.0757 108.93C65.7868 93.8524 81.3052 82.8943 94.1264 75.6586C100.501 72.061 106.12 69.4334 110.124 67.7132C110.82 67.4141 111.467 67.1428 112.059 66.8988C142.484 99.7313 154.97 127.339 157.388 149.957C159.874 173.201 151.84 192.277 139.631 207.685C127.325 223.215 110.905 234.817 97.3145 242.591C90.5586 246.456 84.5961 249.321 80.3417 251.212Z" stroke="#9ABAA9" stroke-width="14.4984" stroke-miterlimit="10" stroke-linecap="round" stroke-linejoin="round"/>
<path d="M84.9102 230.501C84.7249 230.592 84.545 230.68 84.3706 230.764C66.8579 209.409 59.6079 191.533 58.159 176.908C56.6503 161.68 61.3676 149.344 68.461 139.5C75.6203 129.564 85.1903 122.202 93.1243 117.287C97.0674 114.844 100.546 113.042 103.023 111.858C103.207 111.77 103.386 111.686 103.559 111.604C122.536 132.11 130.42 149.537 132.103 163.916C133.85 178.826 129.02 191.24 121.546 201.378C114.01 211.602 103.865 219.376 95.4361 224.638C91.2482 227.252 87.5484 229.207 84.9102 230.501Z" stroke="#BDCDCC" stroke-width="10.8738" stroke-miterlimit="10" stroke-linecap="round" stroke-linejoin="round"/>
</svg>
